<svg width="48" height="44" viewBox="0 0 48 44" fill="none" xmlns="http://www.w3.org/2000/svg">
<g clip-path="url(#clip0_175_4552)">
<path d="M19.7766 38.1387C20.1628 38.5648 20.3603 39.1144 20.3603 39.7972C20.3603 40.48 20.1628 41.0563 19.7766 41.5086C19.3905 41.9521 18.8965 42.1739 18.2857 42.1739C17.675 42.1739 17.1721 41.9434 16.822 41.4911V44.0006H15.7803V37.5985H16.7677V38.2458C17.1002 37.7586 17.6296 37.492 18.2852 37.492C18.8959 37.492 19.3899 37.7051 19.776 38.1393L19.7766 38.1387ZM18.0706 38.3605C17.316 38.3605 16.8043 38.9455 16.8043 39.8321C16.8043 40.7187 17.3248 41.313 18.0794 41.313C18.834 41.313 19.3097 40.7099 19.3097 39.8321C19.3097 38.9543 18.8157 38.3605 18.0706 38.3605Z" fill="white"/>
<path d="M24.1215 42.0668V41.3572C23.789 41.8893 23.2596 42.1733 22.5858 42.1733C21.688 42.1733 21.1043 41.6413 21.1043 40.8875C21.1043 40.1779 21.5807 39.7256 22.5499 39.4863L24.0673 39.1138C24.0225 38.6172 23.7083 38.3599 23.1335 38.3599C22.6754 38.3599 22.2356 38.5724 21.7057 39.0957L21.1038 38.5107C21.6066 37.8989 22.406 37.4908 23.2054 37.4908C24.4175 37.4908 25.0824 38.1294 25.0824 39.2023V42.0662H24.1215V42.0668ZM22.8199 41.3485C23.17 41.3485 23.466 41.2158 23.7089 40.9492C23.9517 40.6744 24.0773 40.3374 24.0773 39.9293V39.8763L22.8381 40.1691C22.3712 40.2757 22.1378 40.4887 22.1378 40.799C22.1378 41.1535 22.3801 41.3485 22.8204 41.3485H22.8199Z" fill="white"/>
<path d="M27.4128 42.1111L25.626 37.598H26.7755L27.934 40.8432L29.146 37.598H30.2148L27.7005 44H26.6411L27.4134 42.1111H27.4128Z" fill="white"/>
<path d="M31.1849 38.1475C31.6159 37.7126 32.173 37.4914 32.8645 37.4914C33.556 37.4914 34.1125 37.7132 34.5434 38.1475C34.9832 38.5823 35.199 39.1406 35.199 39.8321C35.199 40.5236 34.9838 41.0912 34.5434 41.5255C34.1125 41.9603 33.5554 42.1728 32.8645 42.1728C32.1736 42.1728 31.6165 41.9597 31.1849 41.5255C30.754 41.0912 30.5388 40.5236 30.5388 39.8321C30.5388 39.1406 30.754 38.5817 31.1849 38.1475ZM32.8639 38.3605C32.1005 38.3605 31.5888 38.9543 31.5888 39.8321C31.5888 40.7099 32.1093 41.3037 32.8639 41.3037C33.6185 41.3037 34.1479 40.7099 34.1479 39.8321C34.1479 38.9543 33.6273 38.3605 32.8639 38.3605Z" fill="white"/>
<path d="M36.2037 42.0668V37.598H37.1912V38.2808C37.5142 37.758 38.0082 37.4914 38.6461 37.4914C39.149 37.4914 39.5534 37.6509 39.8493 37.9792C40.1547 38.3076 40.3074 38.715 40.3074 39.2116V42.0668H39.2745V39.4421C39.2745 38.7057 38.978 38.3867 38.3673 38.3867C37.6581 38.3867 37.2448 38.9455 37.2448 39.8408V42.0668H36.2031H36.2037Z" fill="white"/>
<path d="M42.0616 36.7556C41.6755 36.7556 41.3972 36.4716 41.3972 36.1083C41.3972 35.7451 41.6937 35.461 42.0616 35.461C42.4295 35.461 42.7437 35.7538 42.7437 36.1083C42.7437 36.4628 42.4566 36.7556 42.0616 36.7556ZM41.5411 42.0668V37.598H42.5827V42.0668H41.5411Z" fill="white"/>
<path d="M45.046 39.8053L43.3847 37.598H44.5879L45.6567 39.0695L46.7432 37.598H47.9199L46.2492 39.7884L48.0001 42.0668H46.7697L45.629 40.533L44.4883 42.0668H43.321L45.0454 39.8053H45.046Z" fill="white"/>
<path d="M21.7079 7.98308C21.7102 8.30615 21.699 8.62747 21.6719 8.94531C21.6419 9.26256 21.6035 9.57806 21.5458 9.88716C21.4361 10.5071 21.2699 11.1073 21.0688 11.6876C21.0688 11.6876 21.0688 11.6882 21.0688 11.6888C20.8065 12.4292 20.4711 13.1365 20.0796 13.803C19.6846 14.4666 19.2354 15.0889 18.7461 15.6704C18.2545 16.2496 17.7215 16.7863 17.1591 17.2835C16.5956 17.78 15.9995 18.234 15.3811 18.6508C14.1402 19.4815 12.8014 20.1579 11.3771 20.6556C11.0199 20.7785 10.6591 20.8931 10.2906 20.9909C10.1102 21.041 9.92747 21.0858 9.74354 21.1283L10.1244 17.5699C10.1692 17.5547 10.2146 17.5396 10.2594 17.5239C11.3924 17.1286 12.4878 16.5768 13.4917 15.9039C13.9922 15.5656 14.4727 15.2001 14.9207 14.8048C15.3682 14.409 15.7867 13.9864 16.1664 13.5399C16.5437 13.0911 16.8832 12.6196 17.1756 12.1289C17.4639 11.6364 17.7044 11.1253 17.8913 10.602C18.1896 9.74396 18.3576 8.8673 18.3458 8.02615C18.3405 7.69843 18.3093 7.37652 18.2515 7.06451C18.1943 6.7525 18.1053 6.45213 17.9939 6.16515C17.9285 5.99983 17.8536 5.83916 17.7693 5.68432C17.5647 5.3042 17.3077 4.95843 17.0011 4.66039C16.7877 4.44792 16.5472 4.26223 16.2914 4.09691C16.0331 3.93508 15.7573 3.79421 15.4643 3.68244C14.8795 3.456 14.2327 3.33842 13.5636 3.32154C13.0861 3.3128 12.5968 3.35064 12.1058 3.43854C12.0444 3.45018 11.9831 3.46124 11.9218 3.4723C11.8605 3.48569 11.7992 3.49908 11.7373 3.51247C11.7067 3.51887 11.676 3.52527 11.6453 3.53284C11.6377 3.53517 11.6306 3.53692 11.6229 3.53866C11.5015 4.67145 11.3801 5.80307 11.2586 6.93586C11.1743 6.96671 11.0906 6.99873 11.0075 7.03133C10.6119 6.98941 10.4138 6.96904 10.4138 6.96904L9.57789 6.88172L8.74195 6.79441C8.74195 6.79441 8.4631 6.7653 7.90601 6.70651C7.90601 6.70651 7.97616 6.0103 8.12118 4.65806C8.21315 3.80294 8.30452 2.94666 8.39649 2.09154C8.39708 2.08513 8.39826 2.07873 8.39885 2.07174C8.46841 1.42327 8.91645 0.903448 9.50243 0.703202H9.50302C10.1497 0.477343 10.8194 0.292232 11.5121 0.170571C12.2048 0.0471637 12.9199 -0.0122116 13.6438 0.00234117C14.152 0.0151476 14.6655 0.0669555 15.176 0.162422C15.6865 0.256141 16.1935 0.401669 16.6875 0.589691C17.1815 0.778877 17.6596 1.02045 18.1124 1.30627C18.5628 1.59558 18.9896 1.92796 19.3716 2.30633C19.4093 2.34243 19.4465 2.37968 19.483 2.41752C19.6345 2.57178 19.7778 2.73419 19.9163 2.90009C20 3.00487 20.0849 3.10907 20.1633 3.21792C20.2441 3.32503 20.319 3.43563 20.3932 3.54681C20.5389 3.77034 20.6762 3.99969 20.7965 4.23603C20.9203 4.4712 21.027 4.71336 21.126 4.95785C21.2705 5.32632 21.3884 5.70237 21.478 6.08249C21.5074 6.20822 21.534 6.33454 21.5576 6.46028C21.6525 6.96729 21.7008 7.47839 21.7085 7.98308H21.7079Z" fill="url(#paint0_linear_175_4552)"/>
<path d="M11.0082 7.03074C11.0919 6.99872 11.1756 6.9667 11.2594 6.93585C11.1751 6.96729 11.0913 6.9993 11.0082 7.0319H11.0059C11.0059 7.0319 11.007 7.0319 11.0076 7.03132L11.0082 7.03074Z" fill="url(#paint1_linear_175_4552)"/>
<path d="M7.91549 6.70709L7.70032 8.71188L7.20748 13.3111C7.20748 13.3158 7.20689 13.3199 7.2063 13.3239L7.20512 13.3344C7.20394 13.3455 7.20335 13.3507 7.20335 13.3507L6.68988 18.1397L6.33499 21.4473L5.87811 25.7072V25.7095L5.87693 25.7171L5.87398 25.7468L5.63817 27.9466L5.28387 31.2535C5.28387 31.2535 5.28033 31.2535 5.27915 31.253C5.04276 33.4568 4.80695 35.6601 4.57055 37.864C4.57055 37.864 4.57055 37.8652 4.57055 37.8681C4.57055 37.871 4.57055 37.8745 4.56937 37.8797C4.56937 37.8832 4.56878 37.8867 4.56819 37.8908C4.56819 37.8948 4.5676 37.8995 4.56701 37.9042C4.46974 38.8157 5.13885 39.6336 6.06204 39.7296C6.98582 39.8263 7.81351 39.165 7.91137 38.2534C7.91137 38.2488 7.91196 38.2447 7.91255 38.2406C7.9149 38.2226 7.91549 38.2138 7.91549 38.2138C8.11239 36.3761 8.30929 34.5384 8.50678 32.7007C8.54864 32.313 8.58991 31.9247 8.63176 31.537C8.75026 30.4316 8.86875 29.3262 8.98724 28.2213C9.05857 27.5536 9.1305 26.886 9.20183 26.2189C9.20654 26.1781 9.21067 26.1374 9.2148 26.0966C9.21598 26.0832 9.21775 26.0698 9.21892 26.057C9.39519 24.4143 9.57087 22.7716 9.74714 21.1295C9.87447 19.9437 10.0018 18.7574 10.1286 17.5716C10.2671 16.2811 10.4056 14.9905 10.5436 13.7006C10.5453 13.6872 10.5465 13.6738 10.5483 13.6604C10.5524 13.6208 10.5565 13.5812 10.5607 13.5422C10.7924 11.3803 11.0889 8.66648 11.3206 6.50452L7.91608 6.70709H7.91549Z" fill="url(#paint2_linear_175_4552)"/>
<path d="M21.4782 6.0819C21.1521 6.0004 20.8197 5.93288 20.4836 5.87758H20.483C20.1122 5.8182 19.7373 5.77221 19.3594 5.73903C18.9809 5.70818 18.5995 5.69072 18.2169 5.68432C18.0684 5.68257 17.9192 5.68315 17.7695 5.68548C16.2656 5.70818 14.7458 5.92589 13.2691 6.30659C12.8635 6.41079 12.4597 6.52721 12.0617 6.65761C11.7929 6.7455 11.5253 6.83748 11.26 6.93644C11.1763 6.96729 11.092 6.9993 11.0088 7.03132C11.0088 7.03132 11.0077 7.03132 11.0071 7.0319C10.9646 7.0482 10.9234 7.06508 10.8809 7.08196C10.493 7.23622 10.1098 7.40096 9.73312 7.57792C9.3576 7.75663 8.98856 7.94582 8.62836 8.14723C8.30766 8.32477 7.99639 8.51454 7.69279 8.71246C7.69102 8.71304 7.68925 8.71478 7.68807 8.71595C7.68925 8.70663 7.69043 8.69732 7.69043 8.68801C7.68984 8.69732 7.68807 8.70663 7.68748 8.71595C7.65093 8.73981 7.61379 8.76426 7.57724 8.78871C7.23768 9.01457 6.90755 9.25091 6.59274 9.50063C5.96431 10.0001 5.39012 10.5473 4.90376 11.1358C4.41682 11.7237 4.0242 12.3559 3.75832 13.0067C3.49186 13.6581 3.35627 14.3252 3.36452 14.9923C3.37042 15.2443 3.394 15.497 3.43409 15.7484C3.51072 16.1664 3.63629 16.536 3.82317 16.8335C3.83496 16.8521 3.84439 16.8731 3.85677 16.8899C3.86974 16.908 3.88212 16.9255 3.8945 16.9429C3.91985 16.9778 3.94166 17.0163 3.97114 17.0477C3.99885 17.0809 4.02479 17.1146 4.05191 17.1478C4.08197 17.1787 4.11204 17.2095 4.14092 17.2415C4.26295 17.3632 4.39854 17.4738 4.55064 17.5739C4.69566 17.6636 4.85247 17.7462 5.02285 17.8184C5.06588 17.8359 5.11127 17.851 5.1549 17.8685C5.17671 17.8772 5.19911 17.8854 5.22093 17.8935C5.24451 17.9011 5.2675 17.9081 5.29049 17.9145C5.33706 17.929 5.38245 17.9447 5.43021 17.9581C5.47914 17.9709 5.52748 17.9831 5.57582 17.9954C5.62357 18.0093 5.67486 18.0181 5.72438 18.0286C5.77508 18.0384 5.8246 18.0513 5.87647 18.0594C5.98082 18.0745 6.0834 18.0943 6.19187 18.1036C6.34868 18.124 6.52554 18.1339 6.69001 18.1403C6.57152 19.2428 6.45361 20.3454 6.33512 21.4479C6.16298 21.438 5.9761 21.4234 5.80101 21.4013C5.63064 21.385 5.45732 21.3547 5.28577 21.328C5.1997 21.314 5.11245 21.2936 5.02638 21.2767C4.93972 21.2587 4.85306 21.2418 4.76581 21.2185C4.67916 21.1958 4.5925 21.1737 4.50525 21.151C4.41859 21.126 4.33134 21.0974 4.24468 21.0707C4.20105 21.0567 4.15802 21.0427 4.11439 21.0288C4.07077 21.013 4.02773 20.9967 3.9847 20.981C3.89804 20.9478 3.81138 20.917 3.72531 20.8821C3.38044 20.7377 3.04088 20.5631 2.71369 20.3558C2.36293 20.1276 2.02985 19.8599 1.72978 19.5578C1.65609 19.4803 1.58299 19.4029 1.51048 19.3237C1.4415 19.2428 1.3743 19.1596 1.30768 19.0769C1.2393 18.9954 1.18094 18.907 1.11963 18.8202C1.08956 18.7766 1.05949 18.7335 1.02884 18.6898C0.998774 18.6462 0.973425 18.6002 0.945717 18.5554C0.72111 18.1979 0.551327 17.8196 0.413969 17.4406C0.381545 17.3457 0.349711 17.2503 0.317288 17.1554C0.29017 17.0605 0.26541 16.965 0.239471 16.8702C0.227091 16.8224 0.214711 16.7747 0.202331 16.7275C0.192309 16.6804 0.182287 16.6327 0.172855 16.5855C0.15399 16.4906 0.135125 16.3963 0.115671 16.3014V16.3003C0.0472868 15.8817 0.00778883 15.4574 0.000125051 15.0307C-0.0069492 14.4666 0.0472868 13.902 0.156938 13.353C0.265999 12.8035 0.430476 12.2715 0.637398 11.7645C1.05301 10.7498 1.63133 9.84117 2.29336 9.0396C2.95657 8.23745 3.70055 7.53485 4.48697 6.90908C4.88077 6.59707 5.28695 6.30601 5.70139 6.03067C6.11582 5.7565 6.53851 5.49746 6.96945 5.25763C7.34851 5.04632 7.73229 4.84666 8.12137 4.65864C8.1084 4.77972 8.10899 4.77972 8.12137 4.65864C8.17443 4.63302 8.22807 4.60741 8.28113 4.5818C8.72504 4.37282 9.17484 4.17898 9.62996 3.99852C10.0845 3.81691 10.5461 3.6545 11.01 3.50257C11.4746 3.35005 11.9444 3.215 12.4178 3.09276C14.3108 2.60612 16.2697 2.34242 18.2564 2.36279C18.6644 2.3692 19.0729 2.38666 19.482 2.41693C19.6335 2.57177 19.7768 2.73418 19.9153 2.8995C19.999 3.00428 20.0839 3.10848 20.1623 3.21733C20.2431 3.32444 20.318 3.43504 20.3923 3.54622C20.5379 3.76975 20.6752 3.99911 20.7955 4.23544C20.9193 4.47062 21.026 4.71277 21.125 4.95726C21.2695 5.32574 21.3874 5.70178 21.477 6.08132L21.4782 6.0819Z" fill="url(#paint3_linear_175_4552)"/>
<path d="M31.9012 15.5202C31.8712 16.8457 31.6295 18.1799 31.1797 19.4355C30.7322 20.6929 30.0755 21.8612 29.295 22.909C28.9041 23.4329 28.4814 23.9282 28.034 24.3951C27.5854 24.8596 27.1131 25.2956 26.6233 25.7054C26.1334 26.1141 25.6264 26.4994 25.1041 26.8563C24.5823 27.2131 24.047 27.5461 23.5023 27.8575C22.9582 28.1701 22.4011 28.4559 21.8375 28.7231C21.2733 28.9903 20.7027 29.2394 20.1238 29.4641C19.5449 29.69 18.9607 29.899 18.3705 30.0887C17.7798 30.2767 17.185 30.4473 16.5855 30.6004C15.3852 30.9031 14.169 31.1389 12.9405 31.296C11.7119 31.4567 10.4715 31.5382 9.22412 31.5428C9.02486 31.5428 8.8256 31.5411 8.62635 31.537C8.62458 31.537 8.6234 31.537 8.62163 31.537C8.08045 31.5254 7.53809 31.4974 6.99514 31.4514H6.99455C6.61077 31.4188 6.2099 31.381 5.80726 31.3286C5.62981 31.3059 5.45178 31.2809 5.27492 31.2535C5.27315 31.2535 5.27197 31.2535 5.2702 31.2529C5.04854 31.2192 4.82806 31.1813 4.60994 31.1418C4.21673 31.0702 3.82941 30.9893 3.4474 30.9043C3.06598 30.8181 2.68869 30.7273 2.31493 30.6336C2.30609 30.6313 2.29666 30.6289 2.28781 30.6266L2.27484 30.6231C1.37406 30.3996 0.827569 29.4973 1.05454 28.6078C1.28091 27.7184 2.19467 27.1788 3.09487 27.4029L3.10784 27.4058L3.12081 27.4093C3.12081 27.4093 3.12434 27.4104 3.1267 27.411C3.13083 27.4116 3.13378 27.4128 3.13672 27.4133C3.14026 27.4139 3.14203 27.4151 3.1438 27.4151C3.14439 27.4151 3.14557 27.4151 3.14616 27.4157C3.49633 27.5036 3.84533 27.5868 4.19197 27.6654C4.53861 27.7428 4.88289 27.8138 5.22304 27.8761C5.35804 27.9012 5.49127 27.9244 5.6245 27.946C5.62568 27.946 5.62745 27.946 5.62863 27.946C5.83261 27.9792 6.0354 28.0088 6.23938 28.035C6.57776 28.0793 6.92086 28.1119 7.28106 28.1427H7.28165C7.84228 28.1899 8.40822 28.2149 8.97593 28.2202H8.98065C9.06023 28.2207 9.13923 28.2213 9.21941 28.2213C11.4059 28.2149 13.6131 27.9233 15.7466 27.3837C16.2795 27.2469 16.8083 27.0955 17.3318 26.9296C17.8547 26.762 18.3705 26.5769 18.8799 26.3784C19.3892 26.1804 19.8892 25.9616 20.3808 25.7293C20.8713 25.4965 21.3535 25.2491 21.821 24.9807C22.2891 24.7135 22.7442 24.43 23.1846 24.1291C23.6249 23.8281 24.0459 23.5074 24.4491 23.1709C24.8523 22.8339 25.2349 22.4794 25.5945 22.108C25.9518 21.7354 26.2837 21.3454 26.5867 20.9391C27.1916 20.1271 27.6803 19.251 28.0086 18.3266C28.3388 17.4028 28.5138 16.4353 28.5386 15.4504C28.5386 15.3503 28.538 15.2496 28.5374 15.1494C28.5374 15.0988 28.5386 15.0493 28.5374 14.9987C28.5351 14.9486 28.5327 14.8985 28.5298 14.8479C28.4997 14.136 28.3942 13.4182 28.2209 12.7057C28.2209 12.7057 28.2209 12.7057 28.2209 12.7052C27.9951 11.7953 27.6643 10.9309 27.2134 10.1514C26.763 9.37141 26.1929 8.67753 25.5161 8.09193C24.8405 7.50516 24.0588 7.02608 23.207 6.65877C22.6558 6.42069 22.0763 6.22917 21.4779 6.08132C21.3883 5.70178 21.2698 5.32574 21.126 4.95726C21.0269 4.71278 20.9208 4.47062 20.7964 4.23544C20.6756 3.99911 20.5388 3.76976 20.3932 3.54623C20.3189 3.43504 20.244 3.32444 20.1633 3.21733C20.0849 3.10848 20.0006 3.00428 19.9163 2.8995C19.7777 2.7336 19.6351 2.57119 19.483 2.41693C19.5366 2.42042 19.5909 2.4245 19.6451 2.42916C20.109 2.4699 20.5724 2.52695 21.0352 2.60146H21.0358C22.2254 2.79763 23.4133 3.12361 24.5529 3.6155C25.6906 4.10622 26.7795 4.76691 27.7351 5.59758C28.6925 6.42593 29.5084 7.42075 30.1327 8.50523C30.7599 9.58912 31.1991 10.7528 31.4892 11.9245V11.9251C31.7091 12.8297 31.8494 13.7646 31.8894 14.7134C31.893 14.781 31.8959 14.8479 31.8983 14.9148C31.9007 14.9818 31.8995 15.0493 31.9001 15.1163C31.9001 15.2507 31.9001 15.3858 31.9001 15.5202H31.9012Z" fill="url(#paint4_linear_175_4552)"/>
<path d="M31.9012 15.5202C31.8712 16.8457 31.6295 18.1799 31.1797 19.4355C30.7322 20.6929 30.0755 21.8612 29.295 22.909C28.9041 23.4329 28.4814 23.9282 28.034 24.3951C27.5854 24.8596 27.1131 25.2956 26.6233 25.7054C26.1334 26.1141 25.6264 26.4994 25.1041 26.8563C24.5823 27.2131 24.047 27.5461 23.5023 27.8575C22.9582 28.1701 22.4011 28.4559 21.8375 28.7231C21.2733 28.9903 20.7027 29.2394 20.1238 29.4641C19.5449 29.69 18.9607 29.899 18.3705 30.0887C17.7798 30.2767 17.185 30.4473 16.5855 30.6004C15.3852 30.9031 14.169 31.1389 12.9405 31.296C11.7119 31.4567 10.4715 31.5382 9.22412 31.5428C9.02486 31.5428 8.8256 31.5411 8.62635 31.537C8.62458 31.537 8.6234 31.537 8.62163 31.537C8.08045 31.5254 7.53809 31.4974 6.99514 31.4514H6.99455C6.61077 31.4188 6.2099 31.381 5.80726 31.3286C5.62981 31.3059 5.45178 31.2809 5.27492 31.2535C5.27315 31.2535 5.27197 31.2535 5.2702 31.2529C5.04854 31.2192 4.82806 31.1813 4.60994 31.1418C4.21673 31.0702 3.82941 30.9893 3.4474 30.9043C3.06598 30.8181 2.68869 30.7273 2.31493 30.6336C2.30609 30.6313 2.29666 30.6289 2.28781 30.6266L2.27484 30.6231C1.37406 30.3996 0.827569 29.4973 1.05454 28.6078C1.28091 27.7184 2.19467 27.1788 3.09487 27.4029L3.10784 27.4058L3.12081 27.4093C3.12081 27.4093 3.12434 27.4104 3.1267 27.411C3.13083 27.4116 3.13378 27.4128 3.13672 27.4133C3.14026 27.4139 3.14203 27.4151 3.1438 27.4151C3.14439 27.4151 3.14557 27.4151 3.14616 27.4157C3.49633 27.5036 3.84533 27.5868 4.19197 27.6654C4.53861 27.7428 4.88289 27.8138 5.22304 27.8761C5.35804 27.9012 5.49127 27.9244 5.6245 27.946C5.62568 27.946 5.62745 27.946 5.62863 27.946C5.83261 27.9792 6.0354 28.0088 6.23938 28.035C6.57776 28.0793 6.92086 28.1119 7.28106 28.1427H7.28165C7.84228 28.1899 8.40822 28.2149 8.97593 28.2202H8.98065C9.06023 28.2207 9.13923 28.2213 9.21941 28.2213C11.4059 28.2149 13.6131 27.9233 15.7466 27.3837C16.2795 27.2469 16.8083 27.0955 17.3318 26.9296C17.8547 26.762 18.3705 26.5769 18.8799 26.3784C19.3892 26.1804 19.8892 25.9616 20.3808 25.7293C20.8713 25.4965 21.3535 25.2491 21.821 24.9807C22.2891 24.7135 22.7442 24.43 23.1846 24.1291C23.6249 23.8281 24.0459 23.5074 24.4491 23.1709C24.8523 22.8339 25.2349 22.4794 25.5945 22.108C25.9518 21.7354 26.2837 21.3454 26.5867 20.9391C27.1916 20.1271 27.6803 19.251 28.0086 18.3266C28.3388 17.4028 28.5138 16.4353 28.5386 15.4504C28.5386 15.3503 28.538 15.2496 28.5374 15.1494C28.5374 15.0988 28.5386 15.0493 28.5374 14.9987C28.5351 14.9486 28.5327 14.8985 28.5298 14.8479C28.4997 14.136 28.3942 13.4182 28.2209 12.7057C28.2209 12.7057 28.2209 12.7057 28.2209 12.7052C27.9951 11.7953 27.6643 10.9309 27.2134 10.1514C26.763 9.37141 26.1929 8.67753 25.5161 8.09193C24.8405 7.50516 24.0588 7.02608 23.207 6.65877C22.6558 6.42069 22.0763 6.22917 21.4779 6.08132C21.3883 5.70178 21.2698 5.32574 21.126 4.95726C21.0269 4.71278 20.9208 4.47062 20.7964 4.23544C20.6756 3.99911 20.5388 3.76976 20.3932 3.54623C20.3189 3.43504 20.244 3.32444 20.1633 3.21733C20.0849 3.10848 20.0006 3.00428 19.9163 2.8995C19.7777 2.7336 19.6351 2.57119 19.483 2.41693C19.5366 2.42042 19.5909 2.4245 19.6451 2.42916C20.109 2.4699 20.5724 2.52695 21.0352 2.60146H21.0358C22.2254 2.79763 23.4133 3.12361 24.5529 3.6155C25.6906 4.10622 26.7795 4.76691 27.7351 5.59758C28.6925 6.42593 29.5084 7.42075 30.1327 8.50523C30.7599 9.58912 31.1991 10.7528 31.4892 11.9245V11.9251C31.7091 12.8297 31.8494 13.7646 31.8894 14.7134C31.893 14.781 31.8959 14.8479 31.8983 14.9148C31.9007 14.9818 31.8995 15.0493 31.9001 15.1163C31.9001 15.2507 31.9001 15.3858 31.9001 15.5202H31.9012Z" fill="url(#paint5_linear_175_4552)"/>
</g>
<defs>
<linearGradient id="paint0_linear_175_4552" x1="10.5477" y1="-4.99682" x2="17.8063" y2="22.3461" gradientUnits="userSpaceOnUse">
<stop offset="0.13" stop-color="#6551D5"/>
<stop offset="0.37" stop-color="#8550C8"/>
<stop offset="0.58" stop-color="#9950C0"/>
<stop offset="0.72" stop-color="#A150BE"/>
<stop offset="0.82" stop-color="#A64FBB"/>
<stop offset="1" stop-color="#AC4FBA"/>
</linearGradient>
<linearGradient id="paint1_linear_175_4552" x1="10.9504" y1="7.08254" x2="11.2107" y2="6.93891" gradientUnits="userSpaceOnUse">
<stop stop-color="#6551D5"/>
<stop offset="0.24" stop-color="#7F50CB"/>
<stop offset="0.53" stop-color="#984FC1"/>
<stop offset="0.79" stop-color="#A74FBB"/>
<stop offset="1" stop-color="#AD4FBA"/>
</linearGradient>
<linearGradient id="paint2_linear_175_4552" x1="9.73476" y1="7.55173" x2="7.01559" y2="30.4118" gradientUnits="userSpaceOnUse">
<stop stop-color="#6252D6"/>
<stop offset="0.36" stop-color="#4253E3"/>
<stop offset="1" stop-color="#0056FF"/>
</linearGradient>
<linearGradient id="paint3_linear_175_4552" x1="-2.30726" y1="16.33" x2="56.7671" y2="-4.9584" gradientUnits="userSpaceOnUse">
<stop offset="0.1" stop-color="#B44FB6"/>
<stop offset="0.2" stop-color="#D15C9C"/>
<stop offset="0.27" stop-color="#E3658D"/>
<stop offset="0.29" stop-color="#E76789"/>
<stop offset="0.35" stop-color="#EF6D83"/>
<stop offset="0.47" stop-color="#E5678A"/>
<stop offset="0.66" stop-color="#DD6391"/>
<stop offset="1" stop-color="#DB6294"/>
</linearGradient>
<linearGradient id="paint4_linear_175_4552" x1="11.7373" y1="32.5691" x2="31.9496" y2="-7.52946" gradientUnits="userSpaceOnUse">
<stop stop-color="#FFCF4E"/>
<stop offset="0.01" stop-color="#FFCE4E"/>
<stop offset="0.22" stop-color="#FFA652"/>
<stop offset="0.38" stop-color="#FF8E55"/>
<stop offset="0.48" stop-color="#FF8656"/>
<stop offset="0.49" stop-color="#FE8557"/>
<stop offset="0.59" stop-color="#EE7571"/>
<stop offset="0.7" stop-color="#E36A84"/>
<stop offset="0.81" stop-color="#DD6490"/>
<stop offset="0.93" stop-color="#DB6294"/>
</linearGradient>
<linearGradient id="paint5_linear_175_4552" x1="11.7373" y1="32.5691" x2="31.9496" y2="-7.52946" gradientUnits="userSpaceOnUse">
<stop stop-color="#FFCF4E"/>
<stop offset="0.01" stop-color="#FFCE4E"/>
<stop offset="0.22" stop-color="#FFA652"/>
<stop offset="0.38" stop-color="#FF8E55"/>
<stop offset="0.48" stop-color="#FF8656"/>
<stop offset="0.49" stop-color="#FE8557"/>
<stop offset="0.59" stop-color="#EE7571"/>
<stop offset="0.7" stop-color="#E36A84"/>
<stop offset="0.81" stop-color="#DD6490"/>
<stop offset="0.93" stop-color="#DB6294"/>
</linearGradient>
<clipPath id="clip0_175_4552">
<rect width="48" height="44" fill="white"/>
</clipPath>
</defs>
</svg>
