<svg xmlns="http://www.w3.org/2000/svg" width="148" height="125" fill="none" viewBox="0 0 148 125"><path fill="#FFF200" d="m121.346 80.45-18.465-41.903c-3.835-8.736-13.991-12.642-22.656-8.878L34.56 49.77c-8.665 3.834-12.571 13.99-8.807 22.655l18.466 41.902c3.835 8.665 13.92 12.642 22.655 8.807l45.667-20.099c8.664-3.764 12.57-13.92 8.806-22.585"></path><path fill="#6300FF" d="M30.724 80.094c-3.196 1.918-7.316.923-9.233-2.273L.68 43.163c-1.349-2.273-.639-5.255 1.634-6.605l14.275-8.593q7.458-4.474 13.85-2.983c4.19.994 7.74 3.835 10.582 8.593 2.84 4.688 3.693 9.162 2.627 13.352-1.065 4.19-4.119 7.813-9.161 10.795l-6.818 4.12 5.397 8.948c1.918 3.196.852 7.386-2.343 9.304m-8.665-27.556 3.835-2.344c4.261-2.557 5.256-5.681 3.054-9.375s-5.469-4.26-9.73-1.704l-3.835 2.344zM54.516 13.974l9.233 32.456 10.084-2.84c3.054-.853 6.18.922 7.032 3.905.852 3.054-.924 6.18-3.906 7.032l-17.472 4.97c-3.125.853-6.32-.922-7.173-3.976L41.52 17.667c-.994-3.551 1.065-7.316 4.616-8.31 3.623-1.065 7.387 1.066 8.38 4.617"></path><path fill="#6300FF" d="m94.003 41.459-16.122-6.535-2.84 3.339c-1.705 1.988-4.404 2.627-6.818 1.704-3.907-1.562-4.972-6.605-2.06-9.8L92.512 1.473A4.4 4.4 0 0 1 97.483.337l6.605 2.7c1.705.71 2.841 2.414 2.77 4.26l-1.065 38.92c-.142 4.261-4.404 7.173-8.31 5.54-2.344-.995-3.835-3.338-3.693-5.966zm.568-9.944.924-16.76-11.009 12.641zM114.599 53.461l-4.332-19.886c-1.136-5.184 4.048-9.517 8.949-7.457 1.988.852 3.48 2.628 3.906 4.758l2.699 13.423 11.434-7.457c1.847-1.207 4.119-1.42 6.108-.568 4.9 2.06 5.468 8.807.923 11.576l-17.187 10.867-7.031 16.76c-1.42 3.41-5.398 5.043-8.807 3.623s-5.042-5.398-3.622-8.807z"></path><path fill="#CC05B5" d="m50.184 80.023-.498.355c-2.13 1.492-5.113.426-5.894-2.06a3.69 3.69 0 0 1 .923-3.763l8.593-8.95c1.492-1.49 4.049-.922 4.617 1.137l9.161 30.752c.853 2.912-.78 5.966-3.693 6.889-2.912.852-5.965-.781-6.818-3.693zM67.157 76.614q.64-4.048 2.344-7.244c1.065-2.13 2.415-3.835 3.977-5.184 1.563-1.35 3.267-2.344 5.185-2.912s3.977-.64 6.108-.285a13.6 13.6 0 0 1 5.61 2.273 13.2 13.2 0 0 1 3.977 4.403c.995 1.776 1.705 3.836 1.989 6.18.355 2.343.284 4.9-.213 7.599q-.639 4.047-2.344 7.244a17.7 17.7 0 0 1-3.977 5.255c-1.562 1.35-3.267 2.344-5.184 2.912s-3.978.64-6.108.284c-2.13-.355-4.048-1.136-5.682-2.272a12.76 12.76 0 0 1-3.977-4.475c-.994-1.775-1.705-3.906-2.06-6.25a34.6 34.6 0 0 1 .355-7.528m8.807 1.492c-.284 1.491-.355 2.911-.284 4.19q.105 1.917.64 3.409a7.2 7.2 0 0 0 1.42 2.415c.639.639 1.349.994 2.201 1.136s1.705 0 2.486-.355 1.491-.995 2.13-1.776c.64-.852 1.208-1.846 1.705-3.054s.852-2.556 1.136-4.048c.285-1.491.356-2.912.285-4.19a15.5 15.5 0 0 0-.569-3.41c-.355-.993-.78-1.775-1.42-2.414a3.9 3.9 0 0 0-2.202-1.136c-.852-.142-1.704 0-2.486.355-.78.355-1.49.994-2.13 1.776-.64.78-1.208 1.846-1.705 3.053-.568 1.208-.923 2.557-1.207 4.049"></path></svg>