<svg xmlns="http://www.w3.org/2000/svg" width="182" height="31" viewBox="0 0 182 31"><g><g><g><path fill="#fff" d="M23.55 15.39H4.33l.649-2.03C5.618 11.363 7.514 10 9.66 10h18.423c1.908 0 3.303 1.76 2.821 3.563l-1.672 6.268c-.563 2.108-2.513 3.58-4.746 3.58H8.748L6.76 31H0l2.666-9.309c.592-2.068 2.523-3.498 4.723-3.498h15.453z"/></g><g><path fill="#fff" d="M34.79 10.043L30.1 27.41c-.49 1.811.885 3.59 2.775 3.59h18.863a4.827 4.827 0 0 0 4.676-3.584L61 10h-2.45a4.827 4.827 0 0 0-4.675 3.585L50.68 25.728H36.662l3.38-12.088c.51-1.825-.881-3.627-2.79-3.614z"/></g><g><path fill="#fff" d="M89 11H67.271c-2.22 0-4.169 1.374-4.774 3.364L62 16h21.699c2.191 0 4.123-1.34 4.753-3.296z"/></g><g><path fill="#fff" d="M62.11 17l-.464 1.683c-.535 1.937.852 3.871 2.777 3.871H79.85l-.876 2.892H64.25c-2.11 0-3.98 1.427-4.628 3.532L59 31h21.583c2.203 0 4.131-1.552 4.699-3.783l1.619-6.368c.488-1.921-.892-3.806-2.789-3.81z"/></g><g><path fill="#fff" d="M92.843 10L87 31h6.337l2.382-8.478h11.73l-2.292 8.434h6.382L115 18.13H96.843l2.337-8.087z"/></g><g><path fill="#fff" d="M110 10l-1 5h5.036l.964-4.91z"/></g><g><path fill="#6efaaa" d="M115 10.263h20.846c.702 0 1.21.5 1.02 1.003-.13.34-.546.574-1.02.574h-7.443L127.62 14h8.348c1.922 0 3.575-1.01 3.952-2.412C140.42 9.732 138.512 8 135.968 8h-20.277z"/></g><g><path fill="#6efaaa" d="M173.43 0c5.816 0 9.94 5.577 8.146 11.016l-3.878 11.754c-1.61 4.881-6.236 8.186-11.455 8.186h-9.213c-5.751 0-9.868-5.462-8.192-10.871l3.234-10.439h-4.996s.401 2.061-1.561 4.604c2.587 3.815 2.32 7.761-.045 11.488-2.364 3.727-5.664 5.262-11.82 5.262H113l3.033-9.559h20.587c.503 0 .935-.35 1.03-.836a1.035 1.035 0 0 0-1.03-1.224h-9.749l1.026-2.587h8.625c2.508 0 4.349 2.315 3.744 4.707-.428 1.691-1.972 2.878-3.744 2.878h-18.437l-1.16 3.815h16.815c6.735 0 10.258-3.377 10.615-7.542.357-4.165-3.033-5.963-3.033-5.963s3.836-3.07 3.212-6.753c-.625-3.683-2.989-4.823-6.824-4.823h-24.13L114.56 0zm5.538 9.95c1.082-3.388-1.493-6.837-5.106-6.837h-28.236c2.074 2.434 1.54 3.683 1.54 3.683h25.961c1.261 0 2.162 1.2 1.79 2.385l-3.494 11.134c-.779 2.481-3.112 4.174-5.754 4.174h-8.566c-1.253 0-2.153-1.186-1.796-2.367l3.7-12.234h-4.081l-3.443 11.392c-1.02 3.373 1.551 6.76 5.13 6.76h9.505c4.209 0 7.93-2.686 9.191-6.633zm-20.652 11.491l7.391.067c1.412.012 2.667-.883 3.092-2.207l3.031-9.435h-7.492c-1.406 0-2.65.9-3.066 2.22z"/></g></g></g></svg> 
