<?xml version="1.0" encoding="UTF-8"?>
<svg id="Layer_2" data-name="Layer 2" xmlns="http://www.w3.org/2000/svg" xmlns:xlink="http://www.w3.org/1999/xlink" viewBox="0 0 600.54 243.71">
  <defs>
    <style>
      .cls-1 {
        fill: url(#linear-gradient);
      }
    </style>
    <linearGradient id="linear-gradient" x1="247.58" y1="188.27" x2="564.09" y2="188.27" gradientUnits="userSpaceOnUse">
      <stop offset="0" stop-color="#3234f9"/>
      <stop offset="1" stop-color="#dc5098"/>
    </linearGradient>
  </defs>
  <g id="Layer_1-2" data-name="Layer 1">
    <g>
      <path d="M393.55,126.03v-8.63h6.24c1.75,0,3.06-.36,3.93-1.08.87-.72,1.31-1.68,1.31-2.88s-.44-2.16-1.31-2.88c-.87-.72-2.19-1.08-3.93-1.08h-5.12v-5.16l5-10.67,7.87,3.48v.6l-4.37,9.11-3.38-3.84h2.25c4.41,0,7.77,1.1,10.06,3.3,2.3,2.2,3.44,4.73,3.44,7.61,0,3.92-1.29,6.92-3.87,9-2.58,2.07-5.99,3.11-10.24,3.11h-7.87Z"/>
      <path d="M73.99,75.85c0-21.44-71.99-9.21-71.99-46.99C2,10.58,21.75,0,50.24,0c20.18,0,35.92,6.73,45.94,14.29l-13.45,14.43c-6.15-5.36-17.32-10.85-32.63-10.85-13.17,0-22.33,4.95-22.33,12.23,0,20.34,71.99,6.32,71.99,42.32,0,18.41-20.47,30.64-51.1,30.64-21.61,0-38.79-6.73-48.66-14.29l13.31-14.43c6.15,5.36,18.89,10.85,36.64,10.85,14.74,0,24.04-3.02,24.04-9.34Z"/>
      <path d="M107.63,44.52c0-27.34,23.33-44.52,52.1-44.52s51.81,17.18,51.81,44.52v57.16h-25.76v-23.22h-52.38v23.22h-25.76v-57.16ZM159.72,17.86c-14.46,0-26.33,9.89-26.33,26.66v16.08h52.38v-16.08c0-16.76-11.88-26.66-26.05-26.66Z"/>
      <path d="M251.9,19.24h-34.64V1.37h95.18v17.86h-34.78v82.44h-25.76V19.24Z"/>
      <path d="M321.03,1.37h25.76v100.31h-25.76V1.37Z"/>
      <path d="M428.65,75.85c0-21.44-71.99-9.21-71.99-46.99,0-18.27,19.75-28.85,48.23-28.85,20.18,0,35.92,6.73,45.94,14.29l-13.45,14.43c-6.15-5.36-17.32-10.85-32.63-10.85-13.17,0-22.33,4.95-22.33,12.23,0,20.34,71.99,6.32,71.99,42.32,0,18.41-20.47,30.64-51.09,30.64-21.61,0-38.79-6.73-48.66-14.29l13.31-14.43c6.15,5.36,18.89,10.85,36.64,10.85,14.74,0,24.04-3.02,24.04-9.34Z"/>
      <path d="M462.29,1.37h25.76v100.31h-25.76V1.37Z"/>
      <path d="M496.64,1.37h25.76c7.87,36.14,26.33,75.57,52.38,76.95V1.37h25.76v100.31h-25.76c-22.76-.55-40.07-14.43-52.38-33.53v33.53h-25.76V1.37Z"/>
      <path d="M0,243.71v-110.88h53.92c29.16,0,45.42,15.95,45.42,35.69,0,13.67-7.44,26.13-22.02,31.44l-4.56,1.67,28.25,42.07h-31.44l-26.43-39.49h-15.8v39.49H0ZM52.55,184.47c14.73,0,19.44-6.99,19.44-15.95s-4.71-15.95-19.44-15.95h-25.21v31.9h25.21Z"/>
      <path d="M110.12,132.82h27.34v110.88h-27.34v-65.13c0-12.22,8.22-22.91,20.02-26.05h0s-.95-.03-.95-.03c-10.63-.33-19.07-9.04-19.07-19.67h0Z"/>
      <path d="M183.33,152.57h-36.76v-19.75h101.01v19.75h-36.91v91.14h-27.34v-91.14Z"/>
      <path d="M573.2,132.82h27.34v110.88h-27.34v-65.13c0-12.22,8.22-22.91,20.02-26.05h0s-.95-.03-.95-.03c-10.63-.33-19.07-9.04-19.07-19.67h0Z"/>
      <path class="cls-1" d="M406.14,243.71c-16.51,0-32.37-11.99-44.64-33.75-1.46-2.61-2.95-5.87-4.68-9.65l-1.68-3.67c-6.89-15.36-16.32-36.35-27.56-36.35-5.9,0-11.41,6.04-15,11.1-4.8,6.51-8.59,14.93-12.61,23.84l-.31.69c-9.71,21.47-20.72,45.79-48.04,46.61l-4.03.12v-26.4l3.2-.59c4.52-.83,7.28-3.51,11.4-8.83,5.91-7.33,10.58-17.3,15.09-26.95,10.32-22.07,22.01-47.06,49.02-47.06,3.89,0,8.13.59,13.35,1.87,19.82,5.06,30.36,27.73,39.65,47.74l.09.2c6.39,13.92,12.42,27.04,20.27,30.83l.11.05c2.24,1.16,4.58,1.8,6.6,1.8,8.31,0,13.54-9.09,18.59-17.87l.23-.39c2.89-5.21,5.39-10.45,7.8-15.52l1.17-2.46c10.4-22.54,21.17-45.89,50.29-45.89,1.98,0,3.89.11,5.91.23l.3.02c23.63,2.49,34.75,26.7,44.56,48.07l.1.21c4.87,10.5,9.47,20.42,15.21,27.17,3.39,4.09,6.48,6.11,10.33,6.8l3.22.57v26.46l-4.14-.24c-27.5-1.56-38.74-25.82-48.65-47.23l-.69-1.5c-3.82-8.27-7.43-16.08-11.84-22.36-3.52-5.07-8.9-11.09-14.65-11.09-11.33,0-21.36,22.01-28.69,38.08l-.16.35c-2.77,6.11-5.46,11.92-7.9,15.77-11.74,19.1-26,29.22-41.22,29.22Z"/>
    </g>
  </g>
</svg>